<mxfile host="app.diagrams.net" modified="2021-05-31T03:04:56.326Z" agent="5.0 (Windows NT 6.1; Win64; x64) AppleWebKit/537.36 (KHTML, like Gecko) Chrome/83.0.4103.116 Safari/537.36" etag="l3JTqdccFLmK71NyN_EZ" version="14.6.13" type="github">
  <diagram id="gWFmLzK-8QmXKd4QmwLB" name="Page-1">
    <mxGraphModel dx="1185" dy="635" grid="1" gridSize="10" guides="1" tooltips="1" connect="1" arrows="1" fold="1" page="1" pageScale="1" pageWidth="827" pageHeight="1169" math="0" shadow="0">
      <root>
        <mxCell id="0" />
        <mxCell id="1" parent="0" />
        <mxCell id="HdDR_88VHVugsW00d13A-1" value="" style="rounded=0;whiteSpace=wrap;html=1;" vertex="1" parent="1">
          <mxGeometry x="270" y="70" width="130" height="580" as="geometry" />
        </mxCell>
        <mxCell id="HdDR_88VHVugsW00d13A-2" value="thread_info" style="rounded=0;whiteSpace=wrap;html=1;strokeColor=#FF3333;strokeWidth=2;" vertex="1" parent="1">
          <mxGeometry x="270" y="629" width="130" height="20" as="geometry" />
        </mxCell>
        <mxCell id="HdDR_88VHVugsW00d13A-3" value="task_struct" style="text;html=1;strokeColor=none;fillColor=none;align=center;verticalAlign=middle;whiteSpace=wrap;rounded=0;" vertex="1" parent="1">
          <mxGeometry x="302.5" y="50" width="65" height="20" as="geometry" />
        </mxCell>
        <mxCell id="HdDR_88VHVugsW00d13A-4" value="sched_class" style="rounded=0;whiteSpace=wrap;html=1;" vertex="1" parent="1">
          <mxGeometry x="491" y="254" width="114" height="28" as="geometry" />
        </mxCell>
        <mxCell id="HdDR_88VHVugsW00d13A-5" value="" style="endArrow=classic;html=1;exitX=1.008;exitY=0.228;exitDx=0;exitDy=0;exitPerimeter=0;entryX=0;entryY=0.5;entryDx=0;entryDy=0;" edge="1" parent="1" target="HdDR_88VHVugsW00d13A-4">
          <mxGeometry width="50" height="50" relative="1" as="geometry">
            <mxPoint x="402.0400000000002" y="267.96000000000004" as="sourcePoint" />
            <mxPoint x="501" y="315" as="targetPoint" />
          </mxGeometry>
        </mxCell>
        <mxCell id="HdDR_88VHVugsW00d13A-6" value="sched_class" style="edgeLabel;html=1;align=center;verticalAlign=middle;resizable=0;points=[];rotation=90;" vertex="1" connectable="0" parent="HdDR_88VHVugsW00d13A-5">
          <mxGeometry x="-0.7942" y="-1" relative="1" as="geometry">
            <mxPoint x="11" y="-1" as="offset" />
          </mxGeometry>
        </mxCell>
        <mxCell id="HdDR_88VHVugsW00d13A-7" value="sched_entity" style="rounded=0;whiteSpace=wrap;html=1;strokeColor=#FF3333;strokeWidth=3;" vertex="1" parent="1">
          <mxGeometry x="270" y="589" width="130" height="20" as="geometry" />
        </mxCell>
        <mxCell id="HdDR_88VHVugsW00d13A-8" value="sched_rt_entity" style="rounded=0;whiteSpace=wrap;html=1;strokeColor=#FF3333;strokeWidth=3;" vertex="1" parent="1">
          <mxGeometry x="270" y="609" width="130" height="20" as="geometry" />
        </mxCell>
        <mxCell id="HdDR_88VHVugsW00d13A-9" value="fs_struct" style="rounded=0;whiteSpace=wrap;html=1;" vertex="1" parent="1">
          <mxGeometry x="60" y="227" width="114" height="20" as="geometry" />
        </mxCell>
        <mxCell id="HdDR_88VHVugsW00d13A-10" value="" style="endArrow=classic;html=1;entryX=1;entryY=0.5;entryDx=0;entryDy=0;" edge="1" parent="1" target="HdDR_88VHVugsW00d13A-9">
          <mxGeometry width="50" height="50" relative="1" as="geometry">
            <mxPoint x="269" y="237" as="sourcePoint" />
            <mxPoint x="240" y="246" as="targetPoint" />
          </mxGeometry>
        </mxCell>
        <mxCell id="HdDR_88VHVugsW00d13A-11" value="fs" style="edgeLabel;html=1;align=center;verticalAlign=middle;resizable=0;points=[];" vertex="1" connectable="0" parent="HdDR_88VHVugsW00d13A-10">
          <mxGeometry x="-0.7111" relative="1" as="geometry">
            <mxPoint x="-16" y="-10" as="offset" />
          </mxGeometry>
        </mxCell>
        <mxCell id="HdDR_88VHVugsW00d13A-12" value="files" style="rounded=0;whiteSpace=wrap;html=1;" vertex="1" parent="1">
          <mxGeometry x="60" y="254" width="114" height="20" as="geometry" />
        </mxCell>
        <mxCell id="HdDR_88VHVugsW00d13A-13" value="" style="endArrow=classic;html=1;entryX=0.999;entryY=0.581;entryDx=0;entryDy=0;entryPerimeter=0;" edge="1" parent="1" target="HdDR_88VHVugsW00d13A-12">
          <mxGeometry width="50" height="50" relative="1" as="geometry">
            <mxPoint x="269" y="266" as="sourcePoint" />
            <mxPoint x="230" y="274" as="targetPoint" />
          </mxGeometry>
        </mxCell>
        <mxCell id="HdDR_88VHVugsW00d13A-14" value="files" style="edgeLabel;html=1;align=center;verticalAlign=middle;resizable=0;points=[];" vertex="1" connectable="0" parent="HdDR_88VHVugsW00d13A-13">
          <mxGeometry x="-0.5555" relative="1" as="geometry">
            <mxPoint x="-18" y="-12" as="offset" />
          </mxGeometry>
        </mxCell>
        <mxCell id="HdDR_88VHVugsW00d13A-15" value="signal_struct" style="rounded=0;whiteSpace=wrap;html=1;" vertex="1" parent="1">
          <mxGeometry x="60" y="284" width="114" height="20" as="geometry" />
        </mxCell>
        <mxCell id="HdDR_88VHVugsW00d13A-16" value="" style="endArrow=classic;html=1;exitX=0;exitY=0.5;exitDx=0;exitDy=0;" edge="1" parent="1" target="HdDR_88VHVugsW00d13A-15">
          <mxGeometry width="50" height="50" relative="1" as="geometry">
            <mxPoint x="270" y="294.0000000000001" as="sourcePoint" />
            <mxPoint x="240" y="324" as="targetPoint" />
          </mxGeometry>
        </mxCell>
        <mxCell id="HdDR_88VHVugsW00d13A-17" value="signal" style="edgeLabel;html=1;align=center;verticalAlign=middle;resizable=0;points=[];" vertex="1" connectable="0" parent="HdDR_88VHVugsW00d13A-16">
          <mxGeometry x="-0.1679" relative="1" as="geometry">
            <mxPoint y="-11" as="offset" />
          </mxGeometry>
        </mxCell>
        <mxCell id="HdDR_88VHVugsW00d13A-18" value="blk_plug" style="rounded=0;whiteSpace=wrap;html=1;" vertex="1" parent="1">
          <mxGeometry x="60" y="314" width="114" height="20" as="geometry" />
        </mxCell>
        <mxCell id="HdDR_88VHVugsW00d13A-19" value="" style="endArrow=classic;html=1;exitX=-0.008;exitY=0.624;exitDx=0;exitDy=0;exitPerimeter=0;entryX=1;entryY=0.5;entryDx=0;entryDy=0;" edge="1" parent="1" target="HdDR_88VHVugsW00d13A-18">
          <mxGeometry width="50" height="50" relative="1" as="geometry">
            <mxPoint x="268.96000000000004" y="324.68000000000006" as="sourcePoint" />
            <mxPoint x="220" y="325" as="targetPoint" />
          </mxGeometry>
        </mxCell>
        <mxCell id="HdDR_88VHVugsW00d13A-21" value="plug" style="edgeLabel;html=1;align=center;verticalAlign=middle;resizable=0;points=[];" vertex="1" connectable="0" parent="HdDR_88VHVugsW00d13A-19">
          <mxGeometry x="-0.1684" relative="1" as="geometry">
            <mxPoint x="1" y="-10" as="offset" />
          </mxGeometry>
        </mxCell>
        <mxCell id="HdDR_88VHVugsW00d13A-22" value="backing_dev_info" style="rounded=0;whiteSpace=wrap;html=1;" vertex="1" parent="1">
          <mxGeometry x="60" y="345" width="114" height="20" as="geometry" />
        </mxCell>
        <mxCell id="HdDR_88VHVugsW00d13A-23" value="" style="endArrow=classic;html=1;exitX=0;exitY=0.75;exitDx=0;exitDy=0;entryX=1;entryY=0.5;entryDx=0;entryDy=0;" edge="1" parent="1" target="HdDR_88VHVugsW00d13A-22">
          <mxGeometry width="50" height="50" relative="1" as="geometry">
            <mxPoint x="270" y="355.0000000000001" as="sourcePoint" />
            <mxPoint x="250" y="395" as="targetPoint" />
          </mxGeometry>
        </mxCell>
        <mxCell id="HdDR_88VHVugsW00d13A-24" value="backing_dev_info" style="edgeLabel;html=1;align=center;verticalAlign=middle;resizable=0;points=[];" vertex="1" connectable="0" parent="HdDR_88VHVugsW00d13A-23">
          <mxGeometry x="-0.3224" relative="1" as="geometry">
            <mxPoint x="-14" y="-10" as="offset" />
          </mxGeometry>
        </mxCell>
        <mxCell id="HdDR_88VHVugsW00d13A-25" value="" style="rounded=0;whiteSpace=wrap;html=1;" vertex="1" parent="1">
          <mxGeometry x="491" y="310" width="114" height="93" as="geometry" />
        </mxCell>
        <mxCell id="HdDR_88VHVugsW00d13A-26" value="rq" style="text;html=1;strokeColor=none;fillColor=none;align=center;verticalAlign=middle;whiteSpace=wrap;rounded=0;" vertex="1" parent="1">
          <mxGeometry x="528" y="290" width="40" height="20" as="geometry" />
        </mxCell>
        <mxCell id="HdDR_88VHVugsW00d13A-27" value="cfs_rq" style="rounded=0;whiteSpace=wrap;html=1;" vertex="1" parent="1">
          <mxGeometry x="498" y="320" width="100" height="20" as="geometry" />
        </mxCell>
        <mxCell id="HdDR_88VHVugsW00d13A-28" value="rt_rq" style="rounded=0;whiteSpace=wrap;html=1;" vertex="1" parent="1">
          <mxGeometry x="498" y="350" width="100" height="20" as="geometry" />
        </mxCell>
        <mxCell id="HdDR_88VHVugsW00d13A-29" value="dl_rq" style="rounded=0;whiteSpace=wrap;html=1;" vertex="1" parent="1">
          <mxGeometry x="498" y="380" width="100" height="20" as="geometry" />
        </mxCell>
        <mxCell id="HdDR_88VHVugsW00d13A-30" value="" style="endArrow=classic;html=1;exitX=0.001;exitY=0.285;exitDx=0;exitDy=0;exitPerimeter=0;" edge="1" parent="1" source="HdDR_88VHVugsW00d13A-25">
          <mxGeometry width="50" height="50" relative="1" as="geometry">
            <mxPoint x="488" y="336" as="sourcePoint" />
            <mxPoint x="400" y="336" as="targetPoint" />
          </mxGeometry>
        </mxCell>
        <mxCell id="HdDR_88VHVugsW00d13A-31" value="curr" style="edgeLabel;html=1;align=center;verticalAlign=middle;resizable=0;points=[];" vertex="1" connectable="0" parent="HdDR_88VHVugsW00d13A-30">
          <mxGeometry x="-0.4671" relative="1" as="geometry">
            <mxPoint as="offset" />
          </mxGeometry>
        </mxCell>
        <mxCell id="HdDR_88VHVugsW00d13A-32" value="sched_entity" style="rounded=0;whiteSpace=wrap;html=1;" vertex="1" parent="1">
          <mxGeometry x="270" y="100" width="130" height="20" as="geometry" />
        </mxCell>
        <mxCell id="HdDR_88VHVugsW00d13A-37" value="THREAD_SIZE" style="rounded=0;whiteSpace=wrap;html=1;strokeWidth=2;" vertex="1" parent="1">
          <mxGeometry x="659.61" y="420.46000000000004" width="83" height="31" as="geometry" />
        </mxCell>
        <mxCell id="HdDR_88VHVugsW00d13A-38" value="" style="endArrow=classic;html=1;exitX=1.003;exitY=0.276;exitDx=0;exitDy=0;exitPerimeter=0;entryX=0;entryY=0;entryDx=0;entryDy=0;" edge="1" parent="1" target="HdDR_88VHVugsW00d13A-37">
          <mxGeometry width="50" height="50" relative="1" as="geometry">
            <mxPoint x="400.0000000000001" y="419.5400000000001" as="sourcePoint" />
            <mxPoint x="646.61" y="430.46000000000004" as="targetPoint" />
          </mxGeometry>
        </mxCell>
        <mxCell id="HdDR_88VHVugsW00d13A-39" value="stack" style="edgeLabel;html=1;align=center;verticalAlign=middle;resizable=0;points=[];" vertex="1" connectable="0" parent="HdDR_88VHVugsW00d13A-38">
          <mxGeometry x="-0.86" relative="1" as="geometry">
            <mxPoint x="3" y="-11" as="offset" />
          </mxGeometry>
        </mxCell>
        <mxCell id="HdDR_88VHVugsW00d13A-40" value="" style="endArrow=classic;html=1;entryX=0;entryY=1;entryDx=0;entryDy=0;" edge="1" parent="1" target="HdDR_88VHVugsW00d13A-2">
          <mxGeometry width="50" height="50" relative="1" as="geometry">
            <mxPoint x="190" y="649" as="sourcePoint" />
            <mxPoint x="590" y="649" as="targetPoint" />
          </mxGeometry>
        </mxCell>
        <mxCell id="HdDR_88VHVugsW00d13A-41" value="current()" style="text;html=1;strokeColor=none;fillColor=none;align=center;verticalAlign=middle;whiteSpace=wrap;rounded=0;" vertex="1" parent="1">
          <mxGeometry x="143" y="639" width="40" height="20" as="geometry" />
        </mxCell>
        <mxCell id="HdDR_88VHVugsW00d13A-43" value="" style="rounded=0;whiteSpace=wrap;html=1;strokeColor=#FF3333;strokeWidth=3;" vertex="1" parent="1">
          <mxGeometry x="270" y="430" width="130" height="160" as="geometry" />
        </mxCell>
        <mxCell id="HdDR_88VHVugsW00d13A-44" value="cpu_context" style="rounded=0;whiteSpace=wrap;html=1;strokeColor=#3333FF;" vertex="1" parent="1">
          <mxGeometry x="276" y="566" width="120" height="20" as="geometry" />
        </mxCell>
        <mxCell id="HdDR_88VHVugsW00d13A-45" value="" style="shape=curlyBracket;whiteSpace=wrap;html=1;rounded=1;strokeColor=#3333FF;strokeWidth=2;" vertex="1" parent="1">
          <mxGeometry x="250" y="430" width="20" height="160" as="geometry" />
        </mxCell>
        <mxCell id="HdDR_88VHVugsW00d13A-46" value="thread_struct" style="text;whiteSpace=wrap;html=1;" vertex="1" parent="1">
          <mxGeometry x="170" y="493" width="80" height="30" as="geometry" />
        </mxCell>
        <mxCell id="HdDR_88VHVugsW00d13A-47" value="X19" style="rounded=0;whiteSpace=wrap;html=1;" vertex="1" parent="1">
          <mxGeometry x="490" y="450" width="40" height="10" as="geometry" />
        </mxCell>
        <mxCell id="HdDR_88VHVugsW00d13A-51" value="X20" style="rounded=0;whiteSpace=wrap;html=1;" vertex="1" parent="1">
          <mxGeometry x="490" y="460" width="40" height="11" as="geometry" />
        </mxCell>
        <mxCell id="HdDR_88VHVugsW00d13A-52" value="X21" style="rounded=0;whiteSpace=wrap;html=1;" vertex="1" parent="1">
          <mxGeometry x="490" y="471" width="40" height="11" as="geometry" />
        </mxCell>
        <mxCell id="HdDR_88VHVugsW00d13A-53" value="X22" style="rounded=0;whiteSpace=wrap;html=1;" vertex="1" parent="1">
          <mxGeometry x="490" y="482" width="40" height="11" as="geometry" />
        </mxCell>
        <mxCell id="HdDR_88VHVugsW00d13A-54" value="X23" style="rounded=0;whiteSpace=wrap;html=1;" vertex="1" parent="1">
          <mxGeometry x="490" y="493" width="40" height="11" as="geometry" />
        </mxCell>
        <mxCell id="HdDR_88VHVugsW00d13A-55" value="X24" style="rounded=0;whiteSpace=wrap;html=1;" vertex="1" parent="1">
          <mxGeometry x="490" y="504" width="40" height="11" as="geometry" />
        </mxCell>
        <mxCell id="HdDR_88VHVugsW00d13A-56" value="X25" style="rounded=0;whiteSpace=wrap;html=1;" vertex="1" parent="1">
          <mxGeometry x="490" y="515" width="40" height="11" as="geometry" />
        </mxCell>
        <mxCell id="HdDR_88VHVugsW00d13A-57" value="X26" style="rounded=0;whiteSpace=wrap;html=1;" vertex="1" parent="1">
          <mxGeometry x="490" y="525" width="40" height="11" as="geometry" />
        </mxCell>
        <mxCell id="HdDR_88VHVugsW00d13A-58" value="X27" style="rounded=0;whiteSpace=wrap;html=1;" vertex="1" parent="1">
          <mxGeometry x="490" y="536" width="40" height="11" as="geometry" />
        </mxCell>
        <mxCell id="HdDR_88VHVugsW00d13A-59" value="X28" style="rounded=0;whiteSpace=wrap;html=1;" vertex="1" parent="1">
          <mxGeometry x="490" y="547" width="40" height="11" as="geometry" />
        </mxCell>
        <mxCell id="HdDR_88VHVugsW00d13A-60" value="fp" style="rounded=0;whiteSpace=wrap;html=1;" vertex="1" parent="1">
          <mxGeometry x="490" y="558" width="40" height="11" as="geometry" />
        </mxCell>
        <mxCell id="HdDR_88VHVugsW00d13A-61" value="sp" style="rounded=0;whiteSpace=wrap;html=1;" vertex="1" parent="1">
          <mxGeometry x="490" y="569" width="40" height="11" as="geometry" />
        </mxCell>
        <mxCell id="HdDR_88VHVugsW00d13A-62" value="pc" style="rounded=0;whiteSpace=wrap;html=1;" vertex="1" parent="1">
          <mxGeometry x="490" y="580" width="40" height="11" as="geometry" />
        </mxCell>
        <mxCell id="HdDR_88VHVugsW00d13A-63" value="" style="endArrow=classic;html=1;exitX=1;exitY=0;exitDx=0;exitDy=0;entryX=0;entryY=0;entryDx=0;entryDy=0;" edge="1" parent="1" source="HdDR_88VHVugsW00d13A-44" target="HdDR_88VHVugsW00d13A-47">
          <mxGeometry width="50" height="50" relative="1" as="geometry">
            <mxPoint x="560" y="540" as="sourcePoint" />
            <mxPoint x="610" y="490" as="targetPoint" />
          </mxGeometry>
        </mxCell>
        <mxCell id="HdDR_88VHVugsW00d13A-64" value="" style="endArrow=classic;html=1;exitX=1;exitY=1;exitDx=0;exitDy=0;" edge="1" parent="1" source="HdDR_88VHVugsW00d13A-44">
          <mxGeometry width="50" height="50" relative="1" as="geometry">
            <mxPoint x="440" y="641" as="sourcePoint" />
            <mxPoint x="490" y="590" as="targetPoint" />
          </mxGeometry>
        </mxCell>
        <mxCell id="HdDR_88VHVugsW00d13A-65" value="" style="rounded=0;whiteSpace=wrap;html=1;" vertex="1" parent="1">
          <mxGeometry x="659.61" y="451.46000000000004" width="83" height="170" as="geometry" />
        </mxCell>
        <mxCell id="HdDR_88VHVugsW00d13A-66" value="" style="rounded=0;whiteSpace=wrap;html=1;strokeWidth=2;" vertex="1" parent="1">
          <mxGeometry x="659.61" y="451.46000000000004" width="83" height="80" as="geometry" />
        </mxCell>
        <mxCell id="HdDR_88VHVugsW00d13A-67" value="" style="edgeStyle=elbowEdgeStyle;elbow=horizontal;endArrow=classic;html=1;exitX=1;exitY=0.5;exitDx=0;exitDy=0;entryX=1;entryY=0.5;entryDx=0;entryDy=0;" edge="1" parent="1" source="HdDR_88VHVugsW00d13A-32" target="HdDR_88VHVugsW00d13A-27">
          <mxGeometry width="50" height="50" relative="1" as="geometry">
            <mxPoint x="861" y="435" as="sourcePoint" />
            <mxPoint x="891" y="375" as="targetPoint" />
            <Array as="points">
              <mxPoint x="620" y="220" />
            </Array>
          </mxGeometry>
        </mxCell>
        <mxCell id="HdDR_88VHVugsW00d13A-68" value="cfs_rq" style="edgeLabel;html=1;align=center;verticalAlign=middle;resizable=0;points=[];" vertex="1" connectable="0" parent="HdDR_88VHVugsW00d13A-67">
          <mxGeometry x="-0.4788" y="-2" relative="1" as="geometry">
            <mxPoint x="2" y="-12" as="offset" />
          </mxGeometry>
        </mxCell>
        <mxCell id="HdDR_88VHVugsW00d13A-69" value="sched_rt_entity" style="rounded=0;whiteSpace=wrap;html=1;" vertex="1" parent="1">
          <mxGeometry x="270" y="120" width="130" height="20" as="geometry" />
        </mxCell>
        <mxCell id="HdDR_88VHVugsW00d13A-70" value="" style="edgeStyle=elbowEdgeStyle;elbow=horizontal;endArrow=classic;html=1;exitX=1;exitY=0.5;exitDx=0;exitDy=0;entryX=1;entryY=0.5;entryDx=0;entryDy=0;" edge="1" parent="1" source="HdDR_88VHVugsW00d13A-69" target="HdDR_88VHVugsW00d13A-28">
          <mxGeometry width="50" height="50" relative="1" as="geometry">
            <mxPoint x="410" y="120" as="sourcePoint" />
            <mxPoint x="607.9999999999998" y="340.0000000000001" as="targetPoint" />
            <Array as="points">
              <mxPoint x="641" y="315" />
            </Array>
          </mxGeometry>
        </mxCell>
        <mxCell id="HdDR_88VHVugsW00d13A-71" value="rt_rq" style="edgeLabel;html=1;align=center;verticalAlign=middle;resizable=0;points=[];" vertex="1" connectable="0" parent="HdDR_88VHVugsW00d13A-70">
          <mxGeometry x="-0.4788" y="-2" relative="1" as="geometry">
            <mxPoint x="2" y="-12" as="offset" />
          </mxGeometry>
        </mxCell>
        <mxCell id="HdDR_88VHVugsW00d13A-72" value="user_pt_regs" style="rounded=0;whiteSpace=wrap;html=1;strokeColor=#3333FF;strokeWidth=2;" vertex="1" parent="1">
          <mxGeometry x="666.11" y="497" width="70" height="29" as="geometry" />
        </mxCell>
        <mxCell id="HdDR_88VHVugsW00d13A-73" value="" style="shape=curlyBracket;whiteSpace=wrap;html=1;rounded=1;flipH=1;strokeColor=#3333FF;strokeWidth=2;" vertex="1" parent="1">
          <mxGeometry x="742.61" y="451.5" width="20" height="78.5" as="geometry" />
        </mxCell>
        <mxCell id="HdDR_88VHVugsW00d13A-75" value="pt_regs" style="text;whiteSpace=wrap;html=1;" vertex="1" parent="1">
          <mxGeometry x="762.61" y="476.46" width="47.39" height="30" as="geometry" />
        </mxCell>
      </root>
    </mxGraphModel>
  </diagram>
</mxfile>
